# xmcd CD database file
#
# Track frame offsets:
#	150
#	10334
#	22486
#	36157
#	43305
#	53739
#	64686
#	80972
#	94604
#	107926
#
# Disc length: 1637 seconds
#
# Revision: 0
# Processed by: cddbd v1.5.2PL0 Copyright (c) Steve Scherf et al.
# Submitted via: CDex 1.40Beta8
#
DISCID=8c06630a
DTITLE=Rollie Tussing - Stomp and Holler
DYEAR=2007
DGENRE=Blues
TTITLE0=When I Die
TTITLE1=Can't No Grave
TTITLE2=Tie 'em Down
TTITLE3=Sunverso Stomp
TTITLE4=Denomination Blues
TTITLE5=Keep On Rubbin'
TTITLE6=John Henry
TTITLE7=Pay Day.Bootleggers Blues
TTITLE8=Satisfied
TTITLE9=Preaching Blues
EXTD=YEAR: 2007 ID3G: 0
EXTT0=
EXTT1=
EXTT2=
EXTT3=
EXTT4=
EXTT5=
EXTT6=
EXTT7=
EXTT8=
EXTT9=
PLAYORDER=
